<svg xmlns="http://www.w3.org/2000/svg" width="60" height="60" viewBox="0 0 60 60">
  <metadata><?xpacket begin="﻿" id="W5M0MpCehiHzreSzNTczkc9d"?>
<x:xmpmeta xmlns:x="adobe:ns:meta/" x:xmptk="Adobe XMP Core 5.6-c138 79.159824, 2016/09/14-01:09:01        ">
   <rdf:RDF xmlns:rdf="http://www.w3.org/1999/02/22-rdf-syntax-ns#">
      <rdf:Description rdf:about=""/>
   </rdf:RDF>
</x:xmpmeta>
                                                                                                    
                                                                                                    
                                                                                                    
                                                                                                    
                                                                                                    
                                                                                                    
                                                                                                    
                                                                                                    
                                                                                                    
                                                                                                    
                                                                                                    
                                                                                                    
                                                                                                    
                                                                                                    
                                                                                                    
                                                                                                    
                                                                                                    
                                                                                                    
                                                                                                    
                                                                                                    
                           
<?xpacket end="w"?></metadata>
<defs>
    <style>
      .cls-1 {
        fill: #ff3334;
        fill-rule: evenodd;
      }
    </style>
  </defs>
  <path class="cls-1" d="M1031.9,2138H978.1a3.1,3.1,0,0,0-3.1,3.1v53.8a3.1,3.1,0,0,0,3.1,3.1h53.8a3.1,3.1,0,0,0,3.1-3.1v-53.8A3.1,3.1,0,0,0,1031.9,2138Zm1.03,3.1v25.87h-9.6a1.037,1.037,0,0,0-.83,1.65,5.791,5.791,0,0,1,1.12,3.52c0,2.85-1.86,5.17-4.14,5.17s-4.14-2.32-4.14-5.17a5.923,5.923,0,0,1,1.12-3.52,1.029,1.029,0,0,0,.1-1.08,1.048,1.048,0,0,0-.93-0.57h-9.6v-7.84a8.265,8.265,0,0,0,3.11.59c3.99,0,7.24-2.78,7.24-6.2s-3.25-6.21-7.24-6.21a8.274,8.274,0,0,0-3.11.6v-7.84h25.87A1.029,1.029,0,0,1,1032.93,2141.1Zm-55.861,0a1.031,1.031,0,0,1,1.034-1.03h25.867v9.6a1.037,1.037,0,0,0,1.65.83,5.791,5.791,0,0,1,3.52-1.12c2.85,0,5.17,1.85,5.17,4.14s-2.32,4.14-5.17,4.14a5.923,5.923,0,0,1-3.52-1.12,1.029,1.029,0,0,0-1.08-.1,1.048,1.048,0,0,0-.57.93v9.6h-7.843a8.272,8.272,0,0,0,.6-3.11c0-3.99-2.784-7.24-6.207-7.24s-6.207,3.25-6.207,7.24a8.291,8.291,0,0,0,.6,3.11h-7.838V2141.1Zm0,53.8v-25.87h9.6a1.032,1.032,0,0,0,.828-1.65,5.854,5.854,0,0,1-1.118-3.52c0-2.85,1.856-5.17,4.138-5.17s4.138,2.32,4.138,5.17a5.852,5.852,0,0,1-1.115,3.52,1.031,1.031,0,0,0,.828,1.65h9.6v7.84a8.265,8.265,0,0,0-3.11-.59c-3.991,0-7.239,2.78-7.239,6.2s3.248,6.21,7.239,6.21a8.274,8.274,0,0,0,3.11-.6v7.84H978.1A1.031,1.031,0,0,1,977.069,2194.9Zm55.861,0a1.029,1.029,0,0,1-1.03,1.03h-25.87v-9.6a1.037,1.037,0,0,0-1.65-.83,5.791,5.791,0,0,1-3.52,1.12c-2.85,0-5.17-1.85-5.17-4.14s2.32-4.14,5.17-4.14a5.923,5.923,0,0,1,3.52,1.12,1.029,1.029,0,0,0,1.65-.83v-9.6h7.84a8.265,8.265,0,0,0-.59,3.11c0,3.99,2.78,7.24,6.2,7.24s6.21-3.25,6.21-7.24a8.274,8.274,0,0,0-.6-3.11h7.84v25.87Z" transform="translate(-975 -2138)"/>
</svg>
