<svg xmlns="http://www.w3.org/2000/svg" width="62" height="60" viewBox="0 0 62 60">
  <metadata><?xpacket begin="﻿" id="W5M0MpCehiHzreSzNTczkc9d"?>
<x:xmpmeta xmlns:x="adobe:ns:meta/" x:xmptk="Adobe XMP Core 5.6-c138 79.159824, 2016/09/14-01:09:01        ">
   <rdf:RDF xmlns:rdf="http://www.w3.org/1999/02/22-rdf-syntax-ns#">
      <rdf:Description rdf:about=""/>
   </rdf:RDF>
</x:xmpmeta>
                                                                                                    
                                                                                                    
                                                                                                    
                                                                                                    
                                                                                                    
                                                                                                    
                                                                                                    
                                                                                                    
                                                                                                    
                                                                                                    
                                                                                                    
                                                                                                    
                                                                                                    
                                                                                                    
                                                                                                    
                                                                                                    
                                                                                                    
                                                                                                    
                                                                                                    
                                                                                                    
                           
<?xpacket end="w"?></metadata>
<defs>
    <style>
      .cls-1 {
        fill: #ff3334;
        fill-rule: evenodd;
      }
    </style>
  </defs>
  <path class="cls-1" d="M1328.67,2138h-45.85a1.332,1.332,0,0,0-1.33,1.34v26.57h-12.16a1.329,1.329,0,0,0-1.33,1.33v22.66a8.1,8.1,0,0,0,8.08,8.1h45.84a8.1,8.1,0,0,0,8.08-8.1v-50.56A1.338,1.338,0,0,0,1328.67,2138Zm-58.01,51.9v-21.32h10.83v21.32A5.415,5.415,0,1,1,1270.66,2189.9Zm56.68,0a5.433,5.433,0,0,1-5.42,5.43h-39.86a8.088,8.088,0,0,0,2.09-5.43v-49.23h43.19v49.23h0Zm-23.47-36.46h17.07a1.34,1.34,0,0,0,0-2.68h-17.07A1.34,1.34,0,0,0,1303.87,2153.44Zm0,14.68h17.07a1.335,1.335,0,0,0,0-2.67h-17.07A1.335,1.335,0,0,0,1303.87,2168.12Zm0,14.68h17.07a1.335,1.335,0,0,0,0-2.67h-17.07A1.335,1.335,0,0,0,1303.87,2182.8Zm-12.29-27.86a1.349,1.349,0,0,0,.97.42h0.01a1.32,1.32,0,0,0,.98-0.44l7.31-8.04a1.334,1.334,0,0,0-1.97-1.8l-6.34,6.98-1.98-2.1a1.333,1.333,0,0,0-1.94,1.83Zm7.3,5.46-6.34,6.98-1.98-2.1a1.333,1.333,0,1,0-1.94,1.83l2.96,3.15a1.349,1.349,0,0,0,.97.42h0.01a1.32,1.32,0,0,0,.98-0.44l7.31-8.04A1.334,1.334,0,0,0,1298.88,2160.4Zm0,15.32-6.34,6.98-1.98-2.1a1.333,1.333,0,0,0-1.94,1.83l2.96,3.15a1.349,1.349,0,0,0,.97.42h0.01a1.32,1.32,0,0,0,.98-0.44l7.31-8.04A1.334,1.334,0,0,0,1298.88,2175.72Z" transform="translate(-1268 -2138)"/>
</svg>
