<svg xmlns="http://www.w3.org/2000/svg" width="60" height="60" viewBox="0 0 60 60">
  <metadata><?xpacket begin="﻿" id="W5M0MpCehiHzreSzNTczkc9d"?>
<x:xmpmeta xmlns:x="adobe:ns:meta/" x:xmptk="Adobe XMP Core 5.6-c138 79.159824, 2016/09/14-01:09:01        ">
   <rdf:RDF xmlns:rdf="http://www.w3.org/1999/02/22-rdf-syntax-ns#">
      <rdf:Description rdf:about=""/>
   </rdf:RDF>
</x:xmpmeta>
                                                                                                    
                                                                                                    
                                                                                                    
                                                                                                    
                                                                                                    
                                                                                                    
                                                                                                    
                                                                                                    
                                                                                                    
                                                                                                    
                                                                                                    
                                                                                                    
                                                                                                    
                                                                                                    
                                                                                                    
                                                                                                    
                                                                                                    
                                                                                                    
                                                                                                    
                                                                                                    
                           
<?xpacket end="w"?></metadata>
<defs>
    <style>
      .cls-1 {
        fill: #ff3334;
        fill-rule: evenodd;
      }
    </style>
  </defs>
  <path class="cls-1" d="M976.177,2496.63a1.185,1.185,0,1,1-1.178,1.18A1.181,1.181,0,0,1,976.177,2496.63Zm30.113-30.07a1.18,1.18,0,1,1-1.18,1.18A1.174,1.174,0,0,1,1006.29,2466.56Zm15.41-13.82a4.986,4.986,0,0,0-7.09,0,5.064,5.064,0,0,0,0,7.12,5.009,5.009,0,0,0,7.09,0A5.064,5.064,0,0,0,1021.7,2452.74Zm-1.67,5.45a2.644,2.644,0,0,1-3.75,0,2.68,2.68,0,0,1,0-3.78,2.644,2.644,0,0,1,3.75,0A2.68,2.68,0,0,1,1020.03,2458.19ZM989.7,2487.32a1.174,1.174,0,0,0-1.578.54l-1.4,2.83a3.869,3.869,0,0,1-3.2,2.14l-1.63.12a0.7,0.7,0,0,1-.54-0.21,0.673,0.673,0,0,1-.2-0.54l0.112-1.64a3.921,3.921,0,0,1,2.135-3.22l2.814-1.41a1.183,1.183,0,0,0-1.049-2.12l-2.814,1.41a6.291,6.291,0,0,0-3.434,5.18l-0.111,1.64a3.046,3.046,0,0,0,3.042,3.27h0.209l1.63-.11a6.247,6.247,0,0,0,5.144-3.46l1.4-2.83A1.2,1.2,0,0,0,989.7,2487.32Zm44.5-47.53a2.729,2.729,0,0,0-2.09-.78l-1.09.07a35.416,35.416,0,0,0-25.22,13.08l-2.58,3.19-6.751-.2h-0.035a19.837,19.837,0,0,0-14.167,5.91l-6.912,6.95a1.186,1.186,0,0,0,.772,2.02l14.63,0.75-0.6.74a1.187,1.187,0,0,0-.12,1.31c0.229,0.43.47,0.84,0.72,1.25l-3.469,4.15a1.189,1.189,0,0,0-.164,1.27,15.466,15.466,0,0,0,2.99,4.3,15.683,15.683,0,0,0,4.365,3.1,1.263,1.263,0,0,0,.5.11,1.149,1.149,0,0,0,.742-0.27c0.747-.61,1.609-1.33,2.442-2.03,0.594-.5,1.2-1.01,1.77-1.48,0.341,0.21.681,0.41,1.031,0.6a1.254,1.254,0,0,0,.56.14,1.127,1.127,0,0,0,.72-0.25l0.8-.62,0.76,14.78a1.185,1.185,0,0,0,.75,1.04,1.249,1.249,0,0,0,.42.08,1.181,1.181,0,0,0,.84-0.35l6.91-6.95a20.111,20.111,0,0,0,5.87-14.25v-6.48l2.72-2.13a35.665,35.665,0,0,0,13.66-26.39l0.02-.58A2.747,2.747,0,0,0,1034.19,2439.79Zm-55.31,28.01,5.041-5.07a17.558,17.558,0,0,1,12.486-5.21l4.933,0.15-8.756,10.84Zm17.772,15.09c-0.615.52-1.244,1.05-1.828,1.53a12.717,12.717,0,0,1-3.046-2.29,13.135,13.135,0,0,1-2.2-2.98l2.54-3.03a27.113,27.113,0,0,0,2.517,2.94h0a26.721,26.721,0,0,0,3.239,2.8C997.476,2482.2,997.061,2482.55,996.652,2482.89Zm19.578-5.44a17.732,17.732,0,0,1-5.18,12.58l-5.04,5.07-0.7-13.77,10.92-8.53v4.65h0Zm16.39-35.12a33.292,33.292,0,0,1-12.75,24.64l-18.45,14.4a25.022,25.022,0,0,1-4.263-3.16l6.223-6.26a1.183,1.183,0,0,0,0-1.67,1.165,1.165,0,0,0-1.67,0l-6.211,6.25a25.428,25.428,0,0,1-3.017-4.14l15.128-18.74a33.1,33.1,0,0,1,23.55-12.21l1.09-.07a0.335,0.335,0,0,1,.28.11,0.351,0.351,0,0,1,.12.28Z" transform="translate(-975 -2439)"/>
</svg>
