<svg xmlns="http://www.w3.org/2000/svg" width="60" height="60" viewBox="0 0 60 60">
  <metadata><?xpacket begin="﻿" id="W5M0MpCehiHzreSzNTczkc9d"?>
<x:xmpmeta xmlns:x="adobe:ns:meta/" x:xmptk="Adobe XMP Core 5.6-c138 79.159824, 2016/09/14-01:09:01        ">
   <rdf:RDF xmlns:rdf="http://www.w3.org/1999/02/22-rdf-syntax-ns#">
      <rdf:Description rdf:about=""/>
   </rdf:RDF>
</x:xmpmeta>
                                                                                                    
                                                                                                    
                                                                                                    
                                                                                                    
                                                                                                    
                                                                                                    
                                                                                                    
                                                                                                    
                                                                                                    
                                                                                                    
                                                                                                    
                                                                                                    
                                                                                                    
                                                                                                    
                                                                                                    
                                                                                                    
                                                                                                    
                                                                                                    
                                                                                                    
                                                                                                    
                           
<?xpacket end="w"?></metadata>
<defs>
    <style>
      .cls-1 {
        fill: #ff3334;
        fill-rule: evenodd;
      }
    </style>
  </defs>
  <path class="cls-1" d="M1325.26,2444.82l-10.58-2.11-4.37,19.44-21.02-4.2V2439h-14.92l-6.37,6.37v20.73h10.66l-2.74,12.63a3.155,3.155,0,0,0-2.5,2.35l-0.49,1.96a2.991,2.991,0,0,0,2.36,3.67l23.72,4.39a8.707,8.707,0,1,0,16.44-4.71l4.86-21.39-3.1-6.15,1.89-8.26,4.6,0.92a3.051,3.051,0,0,0,.67.07h0.22A3.414,3.414,0,0,0,1325.26,2444.82Zm-31.52,15.99,2.94,0.59-1.3,4.54-2.94-.59Zm4.84,0.97,2.94,0.59-1.3,4.54-2.94-.59Zm-24.77-19.48v2.51h-2.51Zm-3.87,4.44h5.8v-5.8h11.61v23.22h-17.41v-17.42Zm19.35,19.36v-6.18l2.55,0.51-1.83,6.41,11.58,2.32,1.83-6.41,6.46,1.29-3.99,17.73a8.659,8.659,0,0,0-3.9,1.94l-24.13-4.82,2.79-12.79h8.64Zm-14.52,17.67a1.087,1.087,0,0,1,.04-0.26l0.49-1.96a1.239,1.239,0,0,1,1.43-.91l23.76,4.75a8.454,8.454,0,0,0-1.44,3.75l-23.41-4.33A1.069,1.069,0,0,1,1274.77,2483.77Zm32.91,13.29a6.77,6.77,0,1,1,6.77-6.77A6.784,6.784,0,0,1,1307.68,2497.06Zm4.1-14.45,1.27-5.55,2.43,0.49-1.53,6.71A9.023,9.023,0,0,0,1311.78,2482.61Zm3.3-14.43,2.42,0.48-1.6,7-2.42-.49Zm3.19-2.93-0.35,1.52-2.41-.48,1.02-4.48Zm-8.31,16.64a9.218,9.218,0,0,0-2.04-.3l7.15-31.8,2.13,0.42Zm14.63-32.25h-0.22a1.415,1.415,0,0,1-.29-0.02l-8.58-1.72,0.65-2.93,8.72,1.75A1.474,1.474,0,0,1,1324.59,2449.64Z" transform="translate(-1268 -2439)"/>
</svg>
